<?xml version="1.0" encoding="UTF-8"?>
<svg id="Ebene_1" xmlns="http://www.w3.org/2000/svg" xmlns:xlink="http://www.w3.org/1999/xlink" viewBox="0 0 340.16 204.1">
  <defs>
    <style>
      .cls-1 {
        fill: none;
      }

      .cls-2 {
        fill: #fff;
      }

      .cls-3 {
        clip-path: url(#clippath);
      }
    </style>
    <clipPath id="clippath">
      <rect class="cls-1" x="0" y="0" width="340.16" height="104.26"/>
    </clipPath>
  </defs>
  <g class="cls-3">
    <path class="cls-2" d="M6.18,0C2.77,0,0,2.77,0,6.19s2.77,6.18,6.18,6.18h327.79c3.42,0,6.18-2.77,6.18-6.18S337.39,0,333.97,0H6.18Z"/>
    <path class="cls-2" d="M238.62,45.47c2.48.5,13.81,3.06,20.1,13.39,7.83,12.87,4.25,31.87-8.33,40.43-6.54,4.45-15.42,6.38-26.23,3.81-6.7-.81-21.43-8.12-21.43-8.12,0,0-19.29-7.85-30.27-7.31-10.98.54-17.8,4.55-24.38,8.66-9.11,5.68-62.68,1.89-69.91-32.47-7.23-34.36,33.48-41.94,41.25-43.83,7.77-1.89,17.95-1.62,23.04-1.08,13.68,1.45,17.4,7.12,36.16,12.72,6.52,1.95,6.89,1.56,22.89,4.99,13.64,2.93,26.06,5.93,37.11,8.81"/>
  </g>
</svg>