<?xml version="1.0" encoding="UTF-8"?>
<svg id="Ebene_1" xmlns="http://www.w3.org/2000/svg" xmlns:xlink="http://www.w3.org/1999/xlink" viewBox="0 0 340.16 204.09">
  <defs>
    <style>
      .cls-1 {
        fill: none;
      }

      .cls-2 {
        fill: #fff;
      }

      .cls-3 {
        clip-path: url(#clippath);
      }
    </style>
    <clipPath id="clippath">
      <rect class="cls-1" y="0" width="340.16" height="204.09"/>
    </clipPath>
  </defs>
  <g class="cls-3">
    <path class="cls-2" d="M6.18,0C2.77,0,0,2.77,0,6.19s2.77,6.18,6.18,6.18h327.79c3.42,0,6.18-2.77,6.18-6.18S337.39,0,333.97,0H6.18Z"/>
    <path class="cls-2" d="M186.01,179.86c-.5,2.48-3.06,13.81-13.39,20.1-12.87,7.83-31.87,4.25-40.43-8.33-4.45-6.54-6.38-15.42-3.81-26.23.81-6.7,8.12-21.43,8.12-21.43,0,0,7.85-19.29,7.31-30.27-.54-10.98-4.55-17.8-8.66-24.38-5.68-9.11-1.89-62.68,32.47-69.91,34.36-7.23,41.94,33.48,43.83,41.25,1.89,7.77,1.62,17.95,1.08,23.04-1.45,13.68-7.12,17.4-12.72,36.16-1.95,6.52-1.56,6.89-4.99,22.89-2.93,13.64-5.93,26.06-8.81,37.11"/>
  </g>
</svg>