<?xml version="1.0" encoding="UTF-8"?>
<svg xmlns="http://www.w3.org/2000/svg" viewBox="0 0 830.6 626.04">
  <defs>
    <style>
      .cls-1 {
        fill: #fff;
      }
    </style>
  </defs>
  <g id="Ebene_1">
    <g>
      <path class="cls-1" d="M338.74,87.16h-36.62v24.41h36.62c8.14,0,12.21-4.07,12.21-12.21s-4.07-12.21-12.21-12.21Z"/>
      <path class="cls-1" d="M.6,0v254h830V0H.6ZM165.46,209.23l-33.57-94.6-33.57,94.6h-51.88L107.47,38.33h48.83l61.04,170.9h-51.88ZM354,209.23l-51.88-73.24v73.24h-48.83V38.33h85.45c40.69,0,61.04,20.35,61.04,61.04,0,27.34-9.16,45.49-27.47,54.44l42.72,55.42h-61.04ZM563.17,209.23h-109.86v-48.83h134.28l-24.41,48.83ZM563.17,148.2h-109.86v-48.83h134.28l-24.41,48.83ZM563.17,87.16h-109.86v-48.83h134.28l-24.41,48.83ZM733.88,209.23l-33.57-94.6-33.57,94.6h-51.88l61.04-170.9h48.83l61.04,170.9h-51.88Z"/>
    </g>
  </g>
  <g id="Ebene_2">
    <g>
      <path class="cls-1" d="M0,626.04l48.83-97.66h122.07c16.27,0,24.41-4.07,24.41-12.21s-8.14-12.21-24.41-12.21H0v-219.73h268.55l-44.92,97.66h-125.98v24.41h97.66c65.1,0,97.66,35.89,97.66,107.67s-32.55,112.06-97.66,112.06H0Z"/>
      <path class="cls-1" d="M488.28,626.04c-47.2,0-87.49-16.68-120.85-50.05-33.37-33.36-50.05-73.65-50.05-120.85s16.68-87.48,50.05-120.85,73.65-50.05,120.85-50.05,87.48,16.69,120.85,50.05c33.36,33.37,50.05,73.65,50.05,120.85s-16.69,87.49-50.05,120.85-73.65,50.05-120.85,50.05ZM540.04,506.9c14.32-14.32,21.48-31.57,21.48-51.76s-7.16-37.43-21.48-51.76c-14.32-14.32-31.58-21.48-51.76-21.48s-37.44,7.16-51.76,21.48-21.48,31.58-21.48,51.76,7.16,37.44,21.48,51.76c14.32,14.32,31.57,21.48,51.76,21.48s37.43-7.16,51.76-21.48Z"/>
      <path class="cls-1" d="M830.08,284.25v341.8h-97.66v-244.14h-48.83l48.83-97.66h97.66Z"/>
    </g>
  </g>
</svg>