<?xml version="1.0" encoding="UTF-8"?>
<svg id="Ebene_1" xmlns="http://www.w3.org/2000/svg" xmlns:xlink="http://www.w3.org/1999/xlink" viewBox="0 0 340.16 204.1">
  <defs>
    <style>
      .cls-1 {
        fill: none;
      }

      .cls-2 {
        fill: #fff;
      }

      .cls-3 {
        clip-path: url(#clippath);
      }
    </style>
    <clipPath id="clippath">
      <rect class="cls-1" x="0" y="0" width="340.16" height="180.43"/>
    </clipPath>
  </defs>
  <g class="cls-3">
    <path class="cls-2" d="M6.18,0C2.77,0,0,2.77,0,6.18s2.77,6.18,6.18,6.18h327.79c3.42,0,6.18-2.77,6.18-6.18s-2.77-6.18-6.18-6.18H6.18Z"/>
    <path class="cls-2" d="M234.26,133.6c1.4,2.11,7.61,11.93,4.74,23.68-3.56,14.63-19.53,25.54-34.48,22.7-7.77-1.48-15.42-6.39-21.24-15.86-4.16-5.31-9.41-20.89-9.41-20.89,0,0-8.09-19.19-16.24-26.57-8.15-7.38-15.81-9.36-23.36-11.11-10.46-2.42-45.66-42.98-26.48-72.4,19.18-29.41,53.33-5.98,60.17-1.83,6.83,4.15,13.84,11.54,17.05,15.52,8.65,10.71,7.27,17.33,16.58,34.56,3.24,5.99,3.77,5.97,12.66,19.72,7.57,11.71,14.23,22.62,20.01,32.47"/>
  </g>
</svg>