<?xml version="1.0" encoding="UTF-8"?>
<svg id="Ebene_2" xmlns="http://www.w3.org/2000/svg" viewBox="0 0 935.12 723.7">
  <defs>
    <style>
      .cls-1 {
        font-family: SpaceCrusaders, 'Space Crusaders';
        font-size: 500px;
      }

      .cls-1, .cls-2 {
        fill: #fff;
      }
    </style>
  </defs>
  <g>
    <path class="cls-2" d="M391.26,87.16h-36.62v24.41h36.62c8.14,0,12.21-4.07,12.21-12.21s-4.07-12.21-12.21-12.21Z"/>
    <path class="cls-2" d="M53.12,0v254h830V0H53.12ZM217.98,209.23l-33.57-94.6-33.57,94.6h-51.88l61.04-170.9h48.83l61.04,170.9h-51.88ZM406.52,209.23l-51.88-73.24v73.24h-48.83V38.33h85.45c40.69,0,61.04,20.35,61.04,61.04,0,27.34-9.16,45.49-27.47,54.44l42.72,55.42h-61.04ZM615.69,209.23h-109.86v-48.83h134.28l-24.41,48.83ZM615.69,148.2h-109.86v-48.83h134.28l-24.41,48.83ZM615.69,87.16h-109.86v-48.83h134.28l-24.41,48.83ZM786.41,209.23l-33.57-94.6-33.57,94.6h-51.88l61.04-170.9h48.83l61.04,170.9h-51.88Z"/>
  </g>
  <text class="cls-1" transform="translate(40.32 626.04)"><tspan x="0" y="0">501</tspan></text>
</svg>