<?xml version="1.0" encoding="UTF-8"?>
<svg xmlns="http://www.w3.org/2000/svg" version="1.1" viewBox="0 0 1417.3 1417.3">
  <defs>
    <style>
      .cls-1 {
        fill: #fff;
      }

      .cls-2 {
        display: none;
        fill: #923e3e;
      }
    </style>
  </defs>
  <!-- Generator: Adobe Illustrator 28.7.1, SVG Export Plug-In . SVG Version: 1.2.0 Build 142)  -->
  <g>
    <g id="Ebene_1">
      <path class="cls-2" d="M1233.8,350c-6.2-36.1-20.7-70.1-42.8-99.3-24.4-32.3-60.7-71.7-103.4-90.6C1008.3,124.8,708.7,1.4,708.7,1.4c0,0-299.6,123.4-379,158.6-42.7,19-79,58.3-103.4,90.6-22,29.2-36.6,63.2-42.8,99.2-10.6,62-23.2,167.5.7,224.3,70.5,171.9,524.4,841.6,524.4,841.6,0,0,453.9-669.8,524.4-841.6,23.9-56.8,11.3-162.3.7-224.3Z"/>
      <path class="cls-1" d="M853.6,140.1C850.5,62.3,786.6.7,708.7.7h0c-77.9,0-141.9,61.6-144.9,139.4l-43.3,1120.5c-2.5,64.6,38,123.4,99.5,143.3s53.1,12.7,88.7,12.7,64.8-5,88.7-12.7c61.5-19.9,102-78.7,99.5-143.3l-43.3-1120.5Z"/>
      <polygon class="cls-1" points="557.7 296.6 569.2 .7 848.2 .7 859.6 296.6 557.7 296.6"/>
    </g>
  </g>
</svg>