{
	"asset":{
		"generator":"Khronos glTF Blender I/O v4.2.60",
		"version":"2.0"
	},
	"extensionsUsed":[
		"KHR_materials_clearcoat",
		"KHR_materials_transmission",
		"KHR_materials_specular",
		"KHR_materials_anisotropy",
		"KHR_materials_ior",
		"KHR_materials_sheen"
	],
	"scene":0,
	"scenes":[
		{
			"name":"Scene",
			"nodes":[
				0
			]
		}
	],
	"nodes":[
		{
			"mesh":0,
			"name":"Dart"
		}
	],
	"materials":[
		{
			"doubleSided":true,
			"name":"Tail",
			"pbrMetallicRoughness":{
				"baseColorTexture":{
					"index":0
				},
				"metallicFactor":0.5,
				"roughnessFactor":0.25
			}
		},
		{
			"doubleSided":true,
			"name":"Tail Edge",
			"pbrMetallicRoughness":{
				"baseColorFactor":[
					0.8000000715255737,
					0.23430725932121277,
					0.021939558908343315,
					1
				],
				"metallicFactor":0.5,
				"roughnessFactor":0.25
			}
		},
		{
			"doubleSided":true,
			"name":"Dart Metal Silver",
			"pbrMetallicRoughness":{
				"baseColorFactor":[
					0.800000011920929,
					0.800000011920929,
					0.800000011920929,
					1
				],
				"roughnessFactor":0.20000000298023224
			}
		},
		{
			"doubleSided":true,
			"extensions":{
				"KHR_materials_specular":{
					"specularColorFactor":[
						1.399999976158142,
						1.399999976158142,
						1.399999976158142
					]
				},
				"KHR_materials_ior":{
					"ior":1.4500000476837158
				}
			},
			"name":"Dart Metal Gold",
			"pbrMetallicRoughness":{
				"baseColorFactor":[
					0.6738464832305908,
					0.30314216017723083,
					0.04022406041622162,
					1
				],
				"metallicFactor":0.8999999761581421,
				"roughnessFactor":0.20000000298023224
			}
		},
		{
			"doubleSided":true,
			"extensions":{
				"KHR_materials_specular":{
					"specularFactor":0.14000000059604645
				},
				"KHR_materials_ior":{
					"ior":1.4500000476837158
				}
			},
			"name":"Dart Plastic Black",
			"pbrMetallicRoughness":{
				"baseColorFactor":[
					0.0012873343657702208,
					0.0012873343657702208,
					0.0012873343657702208,
					1
				],
				"metallicFactor":0,
				"roughnessFactor":0.30000001192092896
			}
		},
		{
			"alphaMode":"BLEND",
			"doubleSided":true,
			"emissiveFactor":[
				0.05000000074505806,
				0.05000000074505806,
				0.05000000074505806
			],
			"extensions":{
				"KHR_materials_clearcoat":{
					"clearcoatFactor":0.125
				},
				"KHR_materials_transmission":{
					"transmissionFactor":0.30000001192092896
				},
				"KHR_materials_specular":{
					"specularColorFactor":[
						2.0,
						2.0,
						2.0
					]
				},
				"KHR_materials_sheen":{
					"sheenColorFactor":[
						1.0,
						1.0,
						1.0
					],
					"sheenRoughnessFactor":0.5
				},
				"KHR_materials_anisotropy":{
					"anisotropyStrength":0.5
				},
				"KHR_materials_ior":{
					"ior":2
				}
			},
			"name":"Dart Plastic Alpha",
			"pbrMetallicRoughness":{
				"baseColorFactor":[
					0.8000000715255737,
					0.8000000715255737,
					0.8000000715255737,
					0.5
				],
				"roughnessFactor":0.20000000298023224
			}
		}
	],
	"meshes":[
		{
			"name":"Plane.006",
			"primitives":[
				{
					"attributes":{
						"POSITION":0,
						"NORMAL":1,
						"TEXCOORD_0":2
					},
					"indices":3,
					"material":0
				},
				{
					"attributes":{
						"POSITION":4,
						"NORMAL":5,
						"TEXCOORD_0":6
					},
					"indices":7,
					"material":1
				},
				{
					"attributes":{
						"POSITION":8,
						"NORMAL":9,
						"TEXCOORD_0":10
					},
					"indices":11,
					"material":2
				},
				{
					"attributes":{
						"POSITION":12,
						"NORMAL":13,
						"TEXCOORD_0":14
					},
					"indices":15,
					"material":3
				},
				{
					"attributes":{
						"POSITION":16,
						"NORMAL":17,
						"TEXCOORD_0":18
					},
					"indices":19,
					"material":4
				},
				{
					"attributes":{
						"POSITION":20,
						"NORMAL":21,
						"TEXCOORD_0":22
					},
					"indices":23,
					"material":5
				}
			]
		}
	],
	"textures":[
		{
			"sampler":0,
			"source":0
		}
	],
	"images":[
		{
			"mimeType":"image/jpeg",
			"name":"dart_texture",
			"uri":"dart_texture.jpg"
		}
	],
	"accessors":[
		{
			"bufferView":0,
			"componentType":5126,
			"count":386,
			"max":[
				-0.5794855952262878,
				0.13746345043182373,
				0.13764141499996185
			],
			"min":[
				-1.065018892288208,
				-0.13764145970344543,
				-0.13746345043182373
			],
			"type":"VEC3"
		},
		{
			"bufferView":1,
			"componentType":5126,
			"count":386,
			"type":"VEC3"
		},
		{
			"bufferView":2,
			"componentType":5126,
			"count":386,
			"type":"VEC2"
		},
		{
			"bufferView":3,
			"componentType":5123,
			"count":1098,
			"type":"SCALAR"
		},
		{
			"bufferView":4,
			"componentType":5126,
			"count":9438,
			"max":[
				-0.5794855952262878,
				0.1376800239086151,
				0.13785798847675323
			],
			"min":[
				-1.0658622980117798,
				-0.137858048081398,
				-0.1376800239086151
			],
			"type":"VEC3"
		},
		{
			"bufferView":5,
			"componentType":5126,
			"count":9438,
			"type":"VEC3"
		},
		{
			"bufferView":6,
			"componentType":5126,
			"count":9438,
			"type":"VEC2"
		},
		{
			"bufferView":7,
			"componentType":5123,
			"count":14268,
			"type":"SCALAR"
		},
		{
			"bufferView":8,
			"componentType":5126,
			"count":36504,
			"max":[
				0.637994110584259,
				0.039411477744579315,
				0.039589423686265945
			],
			"min":[
				-0.5750972032546997,
				-0.03958941623568535,
				-0.03941146656870842
			],
			"type":"VEC3"
		},
		{
			"bufferView":9,
			"componentType":5126,
			"count":36504,
			"type":"VEC3"
		},
		{
			"bufferView":10,
			"componentType":5126,
			"count":36504,
			"type":"VEC2"
		},
		{
			"bufferView":11,
			"componentType":5123,
			"count":151914,
			"type":"SCALAR"
		},
		{
			"bufferView":12,
			"componentType":5126,
			"count":37037,
			"max":[
				0.42567136883735657,
				0.036846354603767395,
				0.03702431172132492
			],
			"min":[
				-0.5787378549575806,
				-0.037024300545454025,
				-0.0368463434278965
			],
			"type":"VEC3"
		},
		{
			"bufferView":13,
			"componentType":5126,
			"count":37037,
			"type":"VEC3"
		},
		{
			"bufferView":14,
			"componentType":5126,
			"count":37037,
			"type":"VEC2"
		},
		{
			"bufferView":15,
			"componentType":5123,
			"count":66162,
			"type":"SCALAR"
		},
		{
			"bufferView":16,
			"componentType":5126,
			"count":53547,
			"max":[
				-0.001886814134195447,
				0.03925969824194908,
				0.039437659084796906
			],
			"min":[
				-1.0661728382110596,
				-0.03943764045834541,
				-0.03927651420235634
			],
			"type":"VEC3"
		},
		{
			"bufferView":17,
			"componentType":5126,
			"count":53547,
			"type":"VEC3"
		},
		{
			"bufferView":18,
			"componentType":5126,
			"count":53547,
			"type":"VEC2"
		},
		{
			"bufferView":19,
			"componentType":5123,
			"count":205710,
			"type":"SCALAR"
		},
		{
			"bufferView":20,
			"componentType":5126,
			"count":6104,
			"max":[
				-0.2599330544471741,
				0.03429032489657402,
				0.03446829319000244
			],
			"min":[
				-0.7249992489814758,
				-0.03446827456355095,
				-0.03429030627012253
			],
			"type":"VEC3"
		},
		{
			"bufferView":21,
			"componentType":5126,
			"count":6104,
			"type":"VEC3"
		},
		{
			"bufferView":22,
			"componentType":5126,
			"count":6104,
			"type":"VEC2"
		},
		{
			"bufferView":23,
			"componentType":5123,
			"count":9414,
			"type":"SCALAR"
		}
	],
	"bufferViews":[
		{
			"buffer":0,
			"byteLength":4632,
			"byteOffset":0,
			"target":34962
		},
		{
			"buffer":0,
			"byteLength":4632,
			"byteOffset":4632,
			"target":34962
		},
		{
			"buffer":0,
			"byteLength":3088,
			"byteOffset":9264,
			"target":34962
		},
		{
			"buffer":0,
			"byteLength":2196,
			"byteOffset":12352,
			"target":34963
		},
		{
			"buffer":0,
			"byteLength":113256,
			"byteOffset":14548,
			"target":34962
		},
		{
			"buffer":0,
			"byteLength":113256,
			"byteOffset":127804,
			"target":34962
		},
		{
			"buffer":0,
			"byteLength":75504,
			"byteOffset":241060,
			"target":34962
		},
		{
			"buffer":0,
			"byteLength":28536,
			"byteOffset":316564,
			"target":34963
		},
		{
			"buffer":0,
			"byteLength":438048,
			"byteOffset":345100,
			"target":34962
		},
		{
			"buffer":0,
			"byteLength":438048,
			"byteOffset":783148,
			"target":34962
		},
		{
			"buffer":0,
			"byteLength":292032,
			"byteOffset":1221196,
			"target":34962
		},
		{
			"buffer":0,
			"byteLength":303828,
			"byteOffset":1513228,
			"target":34963
		},
		{
			"buffer":0,
			"byteLength":444444,
			"byteOffset":1817056,
			"target":34962
		},
		{
			"buffer":0,
			"byteLength":444444,
			"byteOffset":2261500,
			"target":34962
		},
		{
			"buffer":0,
			"byteLength":296296,
			"byteOffset":2705944,
			"target":34962
		},
		{
			"buffer":0,
			"byteLength":132324,
			"byteOffset":3002240,
			"target":34963
		},
		{
			"buffer":0,
			"byteLength":642564,
			"byteOffset":3134564,
			"target":34962
		},
		{
			"buffer":0,
			"byteLength":642564,
			"byteOffset":3777128,
			"target":34962
		},
		{
			"buffer":0,
			"byteLength":428376,
			"byteOffset":4419692,
			"target":34962
		},
		{
			"buffer":0,
			"byteLength":411420,
			"byteOffset":4848068,
			"target":34963
		},
		{
			"buffer":0,
			"byteLength":73248,
			"byteOffset":5259488,
			"target":34962
		},
		{
			"buffer":0,
			"byteLength":73248,
			"byteOffset":5332736,
			"target":34962
		},
		{
			"buffer":0,
			"byteLength":48832,
			"byteOffset":5405984,
			"target":34962
		},
		{
			"buffer":0,
			"byteLength":18828,
			"byteOffset":5454816,
			"target":34963
		}
	],
	"samplers":[
		{
			"magFilter":9729,
			"minFilter":9987
		}
	],
	"buffers":[
		{
			"byteLength":5473644,
			"uri":"dart_3d-model.bin"
		}
	]
}
