<?xml version="1.0" encoding="UTF-8"?>
<svg id="Ebene_1" xmlns="http://www.w3.org/2000/svg" viewBox="0 0 1076.09 1414.49">
  <defs>
    <style>
      .cls-1 {
        fill: #fff;
      }
    </style>
  </defs>
  <path class="cls-1" d="M1063.16,348.56c-6.15-36.06-20.75-70.12-42.8-99.3-24.43-32.32-60.71-71.67-103.36-90.62C837.69,123.38,538.04,0,538.04,0c0,0-299.64,123.38-378.96,158.63-42.66,18.96-78.95,58.32-103.38,90.65-22.04,29.17-36.63,63.21-42.78,99.25-10.57,61.95-23.18,167.49.74,224.32,70.5,171.85,524.37,841.64,524.37,841.64,0,0,453.87-669.79,524.37-841.64,23.92-56.82,11.32-162.33.75-224.29Z"/>
</svg>