<?xml version="1.0" encoding="UTF-8"?>
<svg xmlns="http://www.w3.org/2000/svg" version="1.1" viewBox="0 0 24 24">
  <defs>
    <style>
      .cls-1 {
        fill: none;
      }

      .cls-2 {
        fill: #0866ff;
      }

      .cls-3 {
        fill: #fff;
      }
    </style>
  </defs>
  <!-- Generator: Adobe Illustrator 28.7.0, SVG Export Plug-In . SVG Version: 1.2.0 Build 136)  -->
  <g>
    <g id="Ebene_1">
      <g id="Ebene_1-2" data-name="Ebene_1">
        <g>
          <rect class="cls-1" x="6.6" y="11.9" width="2.5" height="0"/>
          <polygon class="cls-1" points="17.4 12 17.4 11.9 13.5 11.9 13.5 12 17.4 12"/>
          <path class="cls-1" d="M15,4.4c.8,0,2.1.2,2.6.3h0c-.5-.3,1.5-.4-2.6-.4s-5.9,1.9-5.9,6h0c0-4,1.9-5.9,5.9-5.9Z"/>
          <path class="cls-3" d="M12,0C5.4,0,0,5.4,0,12s3.9,10.4,9.1,11.6v-7.9h-2.5v-3.7h0c0,0,2.5,0,2.5,0v-1.5h0c0-4.2,1.8-6.1,5.9-6.1s2.1,0,2.6.3h0v3.3h0c0,0,0,0,0,0h-1.3c-1.9,0-2.7.8-2.7,2.7v1.2h3.9,0c0,0,0,0,0,0l-.7,3.7v.2h-3.2v7.9c5.9-.7,10.5-5.8,10.5-11.8C24,5.4,18.6,0,12,0Z"/>
          <path class="cls-2" d="M24,11.9s0,0,0,0c0,0,0,0,0,0h0Z"/>
          <polygon class="cls-3" points="13.5 15.6 13.5 15.9 16.7 15.9 16.7 15.7 17.4 12 17.4 12 16.7 15.6 13.5 15.6"/>
          <path class="cls-3" d="M13.5,10.6h0c0-1.8.8-2.6,2.7-2.6h1.4c-.3,0-.8,0-1.4,0-2,0-2.7.7-2.7,2.7Z"/>
          <rect class="cls-3" x="6.6" y="15.6" width="2.5" height="0"/>
        </g>
      </g>
    </g>
  </g>
</svg>