<?xml version="1.0" encoding="UTF-8"?>
<svg xmlns="http://www.w3.org/2000/svg" version="1.1" viewBox="0 0 24 24">
  <defs>
    <style>
      .cls-1 {
        fill: #fff;
        fill-rule: evenodd;
      }
    </style>
  </defs>
  <!-- Generator: Adobe Illustrator 28.6.0, SVG Export Plug-In . SVG Version: 1.2.0 Build 709)  -->
  <g>
    <g id="Ebene_1">
      <path class="cls-1" d="M.6.3c0,.1,1.9,2.8,4,5.9,2.1,3.1,4.1,6,4.4,6.4.3.4.5.7.5.8s-.1.1-.2.3c-.1.1-.5.6-.8.9-.3.4-.8,1-1.2,1.4-.3.4-.9,1.1-1.3,1.5-.4.4-1.1,1.2-1.5,1.8-1.4,1.6-1.6,1.9-2.7,3.1-.6.7-1.1,1.3-1.2,1.4s-.2.2-.2.2.4,0,1,0h1l1.1-1.3c.6-.7,1.2-1.4,1.3-1.6.3-.3,2.3-2.7,2.5-2.9,0,0,.2-.2.2-.2,0,0,.5-.5.9-1.1.4-.5.8-1,.8-1,0,0,.3-.3.5-.6.3-.3.5-.6.5-.6s1.4,2,3.1,4.5c1.7,2.5,3.1,4.6,3.2,4.6h0c0,0,3.5,0,3.5,0,2.8,0,3.5,0,3.4,0,0,0-1.7-2.5-5.9-8.6-3.1-4.5-3.5-5.1-3.5-5.1,0,0,.4-.5,3.2-3.7.5-.5,1.1-1.3,1.4-1.7s.6-.8.7-.8c0,0,.5-.5.9-1,.4-.5,1.1-1.3,1.5-1.8.4-.5.8-1,.8-1,0,0,0,0-1,0h-1l-.5.5c-.6.7-1.7,2-2,2.3-.1.2-.3.4-.4.4,0,0-.2.3-.3.4s-.6.7-1.1,1.3c-.5.6-1,1.1-1,1.1,0,0-.1.1-.3.3-.2.3-.5.5-1.5,1.8-.5.5-.5.6-.5.5,0,0-1.4-2-3-4.4L7.4,0h-3.5s-3.5,0-3.5,0v.2M3.3,1.7s.7,1,1.4,2.1c1.5,2.1,7.2,10.3,10.9,15.5,1.2,1.7,2.2,3.1,2.2,3.1,0,0,.4,0,1.6,0h1.6s-4.1-5.9-4.1-5.9c-2.3-3.2-5.5-7.9-7.3-10.4L6.4,1.7h-1.6s-1.6,0-1.6,0h0"/>
    </g>
  </g>
</svg>