<?xml version="1.0" encoding="UTF-8"?>
<svg xmlns="http://www.w3.org/2000/svg" version="1.1" viewBox="0 0 1417.3 1417.3">
  <defs>
    <style>
      .cls-1 {
        fill: #fff;
      }
    </style>
  </defs>
  <!-- Generator: Adobe Illustrator 28.7.1, SVG Export Plug-In . SVG Version: 1.2.0 Build 142)  -->
  <g>
    <g id="Ebene_1">
      <g>
        <polygon class="cls-1" points="764.6 1038.8 782.5 1020.9 791.3 973.7 764.6 947 718.7 992.9 764.6 1038.8"/>
        <polygon class="cls-1" points="759.3 1145.3 773.7 1067.9 764.6 1058.8 718.7 1104.7 759.3 1145.3"/>
        <polygon class="cls-1" points="764.6 927 808.1 883.4 808.9 879.4 764.6 835.2 718.7 881.1 764.6 927"/>
        <polygon class="cls-1" points="585.3 208.5 566.9 226.8 566.9 281.9 596.8 311.8 642.7 265.9 585.3 208.5"/>
        <polygon class="cls-1" points="613.8 908.1 622.9 956.8 642.7 937 613.8 908.1"/>
        <polygon class="cls-1" points="698.6 1104.7 652.7 1058.8 643.6 1067.9 658.1 1145.3 698.6 1104.7"/>
        <polygon class="cls-1" points="652.7 947 626.1 973.7 634.9 1020.9 652.7 1038.8 698.6 992.9 652.7 947"/>
        <polygon class="cls-1" points="708.7 1114.8 661.2 1162.2 664.8 1181.4 708.7 1225.3 752.5 1181.4 756.1 1162.2 708.7 1114.8"/>
        <polygon class="cls-1" points="774.6 265.9 820.5 311.8 850.4 281.9 850.4 226.8 832.1 208.5 774.6 265.9"/>
        <path class="cls-1" d="M568.2,638.7c.7,11.4,1.8,22.8,3.1,34.2l15.5-15.5-18.6-18.6Z"/>
        <path class="cls-1" d="M642.7,601.5l-45.9-45.9-29.9,29.9v14.6c0,5.9,0,11.8.3,17.7l29.6,29.6,45.9-45.9Z"/>
        <polygon class="cls-1" points="566.9 525.7 566.9 565.4 586.8 545.5 566.9 525.7"/>
        <polygon class="cls-1" points="596.8 779.2 590.9 785.2 605.3 862.5 642.7 825.1 596.8 779.2"/>
        <path class="cls-1" d="M642.7,713.3l-45.9-45.9-23.2,23.2c1.1,7.3,2.3,14.6,3.7,21.8l6.3,33.5,13.2,13.2,45.9-45.9Z"/>
        <polygon class="cls-1" points="642.7 489.6 596.8 443.7 566.9 473.6 566.9 505.6 596.8 535.5 642.7 489.6"/>
        <polygon class="cls-1" points="642.7 377.8 596.8 331.9 566.9 361.8 566.9 393.8 596.8 423.7 642.7 377.8"/>
        <polygon class="cls-1" points="625 1.4 624.3 .7 566.9 .7 566.9 58.3 567.5 58.9 625 1.4"/>
        <polygon class="cls-1" points="566.9 190.2 566.9 206.8 575.2 198.5 566.9 190.2"/>
        <polygon class="cls-1" points="566.9 413.8 566.9 453.6 586.8 433.7 566.9 413.8"/>
        <polygon class="cls-1" points="849.8 58.9 850.4 58.3 850.4 .7 793 .7 792.3 1.4 849.8 58.9"/>
        <polygon class="cls-1" points="850.4 206.8 850.4 190.2 842.1 198.5 850.4 206.8"/>
        <polygon class="cls-1" points="566.9 302 566.9 341.7 586.8 321.9 566.9 302"/>
        <polygon class="cls-1" points="652.7 835.2 608.5 879.4 609.2 883.4 652.7 927 698.6 881.1 652.7 835.2"/>
        <rect class="cls-1" x="620.3" y="401.2" width="64.9" height="64.9" transform="translate(-115.5 588.6) rotate(-45)"/>
        <rect class="cls-1" x="620.3" y="289.4" width="64.9" height="64.9" transform="translate(-36.4 555.8) rotate(-45)"/>
        <rect class="cls-1" x="614.5" y="163.6" width="64.9" height="81.3" transform="translate(45.1 517.3) rotate(-45)"/>
        <rect class="cls-1" x="620.3" y="624.9" width="64.9" height="64.9" transform="translate(-273.7 654.1) rotate(-45)"/>
        <rect class="cls-1" x="620.3" y="736.8" width="64.9" height="64.9" transform="translate(-352.7 686.9) rotate(-45)"/>
        <rect class="cls-1" x="620.3" y="513.1" width="64.9" height="64.9" transform="translate(-194.6 621.3) rotate(-45)"/>
        <rect class="cls-1" x="597.5" y="27" width="81.3" height="90" transform="translate(136 472.3) rotate(-45)"/>
        <rect class="cls-1" x="676.2" y="904.5" width="64.9" height="64.9" transform="translate(-455 775.5) rotate(-45)"/>
        <rect class="cls-1" x="734.2" y="31.4" width="90" height="81.3" transform="translate(177.3 572.1) rotate(-45)"/>
        <rect class="cls-1" x="676.2" y="1016.4" width="64.9" height="64.9" transform="translate(-534.1 808.3) rotate(-45)"/>
        <rect class="cls-1" x="676.2" y="233.5" width="64.9" height="64.9" transform="translate(19.5 579) rotate(-45)"/>
        <rect class="cls-1" x="729.7" y="171.8" width="81.3" height="64.9" transform="translate(81.2 604.5) rotate(-45)"/>
        <rect class="cls-1" x="668" y="101.9" width="81.3" height="81.3" transform="translate(106.8 542.9) rotate(-45)"/>
        <rect class="cls-1" x="732.1" y="401.2" width="64.9" height="64.9" transform="translate(-82.7 667.7) rotate(-45)"/>
        <rect class="cls-1" x="676.2" y="345.3" width="64.9" height="64.9" transform="translate(-59.6 611.7) rotate(-45)"/>
        <rect class="cls-1" x="676.2" y="792.7" width="64.9" height="64.9" transform="translate(-375.9 742.8) rotate(-45)"/>
        <polygon class="cls-1" points="567.5 78.9 566.9 79.5 566.9 170.1 585.3 188.4 631.2 142.5 567.5 78.9"/>
        <rect class="cls-1" x="676.2" y="457.2" width="64.9" height="64.9" transform="translate(-138.7 644.5) rotate(-45)"/>
        <polygon class="cls-1" points="708.7 65 772.3 1.4 771.6 .7 708.7 .7 645.8 .7 645 1.4 708.7 65"/>
        <polygon class="cls-1" points="786.2 142.5 832.1 188.4 850.4 170.1 850.4 79.5 849.8 78.9 786.2 142.5"/>
        <rect class="cls-1" x="732.1" y="289.4" width="64.9" height="64.9" transform="translate(-3.7 634.9) rotate(-45)"/>
        <rect class="cls-1" x="732.1" y="736.8" width="64.9" height="64.9" transform="translate(-320 765.9) rotate(-45)"/>
        <rect class="cls-1" x="676.2" y="680.8" width="64.9" height="64.9" transform="translate(-296.8 710) rotate(-45)"/>
        <rect class="cls-1" x="732.1" y="624.9" width="64.9" height="64.9" transform="translate(-240.9 733.2) rotate(-45)"/>
        <rect class="cls-1" x="732.1" y="513.1" width="64.9" height="64.9" transform="translate(-161.8 700.4) rotate(-45)"/>
        <rect class="cls-1" x="676.2" y="569" width="64.9" height="64.9" transform="translate(-217.7 677.3) rotate(-45)"/>
        <polygon class="cls-1" points="850.4 341.7 850.4 302 830.5 321.9 850.4 341.7"/>
        <path class="cls-1" d="M774.6,713.3l45.9,45.9,13.2-13.2,6.3-33.5c1.4-7.3,2.6-14.5,3.7-21.8l-23.2-23.2-45.9,45.9Z"/>
        <polygon class="cls-1" points="639.5 1045.5 640.5 1051.1 642.7 1048.8 639.5 1045.5"/>
        <path class="cls-1" d="M846,672.9c1.4-11.4,2.4-22.7,3.1-34.2l-18.6,18.6,15.5,15.5Z"/>
        <polygon class="cls-1" points="850.4 565.4 850.4 525.7 830.5 545.5 850.4 565.4"/>
        <path class="cls-1" d="M774.6,601.5l45.9,45.9,29.6-29.6c.2-5.9.3-11.8.3-17.7v-14.6l-29.9-29.9-45.9,45.9Z"/>
        <polygon class="cls-1" points="774.6 825.1 812 862.5 826.4 785.2 820.5 779.2 774.6 825.1"/>
        <polygon class="cls-1" points="681.7 1272.2 708.7 1416.6 735.6 1272.2 708.7 1245.3 681.7 1272.2"/>
        <polygon class="cls-1" points="794.4 956.8 803.5 908.1 774.6 937 794.4 956.8"/>
        <polygon class="cls-1" points="738.7 1255.4 747.9 1206 718.7 1235.3 738.7 1255.4"/>
        <polygon class="cls-1" points="776.8 1051.1 777.9 1045.5 774.6 1048.8 776.8 1051.1"/>
        <polygon class="cls-1" points="669.4 1206 678.6 1255.4 698.6 1235.3 669.4 1206"/>
        <polygon class="cls-1" points="850.4 453.6 850.4 413.8 830.5 433.7 850.4 453.6"/>
        <polygon class="cls-1" points="774.6 377.8 820.5 423.7 850.4 393.8 850.4 361.8 820.5 331.9 774.6 377.8"/>
        <polygon class="cls-1" points="774.6 489.6 820.5 535.5 850.4 505.6 850.4 473.6 820.5 443.7 774.6 489.6"/>
        <polygon class="cls-1" points="567.5 58.9 566.9 58.3 566.9 59.5 567.5 58.9"/>
        <polygon class="cls-1" points="625.7 .7 624.3 .7 625 1.4 625.7 .7"/>
        <polygon class="cls-1" points="850.4 79.5 850.4 78.3 849.8 78.9 850.4 79.5"/>
        <polygon class="cls-1" points="773 .7 771.6 .7 772.3 1.4 773 .7"/>
        <polygon class="cls-1" points="850.4 59.5 850.4 58.3 849.8 58.9 850.4 59.5"/>
        <polygon class="cls-1" points="792.3 1.4 793 .7 791.6 .7 792.3 1.4"/>
        <polygon class="cls-1" points="566.9 78.3 566.9 79.5 567.5 78.9 566.9 78.3"/>
        <polygon class="cls-1" points="645.8 .7 644.3 .7 645 1.4 645.8 .7"/>
      </g>
      <path class="cls-1" d="M566.9,600.1c0,37.7,3.5,75.3,10.4,112.3l131.3,704.2,131.3-704.2c6.9-37,10.4-74.7,10.4-112.3h-283.5Z"/>
    </g>
  </g>
</svg>