<?xml version="1.0" encoding="UTF-8"?>
<svg xmlns="http://www.w3.org/2000/svg" version="1.1" viewBox="0 0 1417.3 1417.3">
  <defs>
    <style>
      .cls-1 {
        fill: #fff;
      }
    </style>
  </defs>
  <!-- Generator: Adobe Illustrator 28.7.1, SVG Export Plug-In . SVG Version: 1.2.0 Build 142)  -->
  <g>
    <g id="Ebene_1">
      <g>
        <polygon class="cls-1" points="659.1 1151.1 742.6 1234.5 760 1141.4 633.8 1015.2 659.1 1151.1"/>
        <polygon class="cls-1" points="566.9 257.3 850.4 540.7 850.4 448.9 566.9 165.5 566.9 257.3"/>
        <polygon class="cls-1" points="566.9 592.8 815.9 841.7 830.3 764.4 566.9 501 566.9 592.8"/>
        <path class="cls-1" d="M577.3,712.4l.6,3.2,220.4,220.4,14.4-77.4-245.7-245.7c.7,33.4,4.1,66.6,10.2,99.4Z"/>
        <polygon class="cls-1" points="566.9 .7 566.9 33.6 850.4 317.1 850.4 202.1 649 .7 566.9 .7"/>
        <polygon class="cls-1" points="566.9 145.4 850.4 428.9 850.4 337.1 566.9 53.6 566.9 145.4"/>
        <path class="cls-1" d="M566.9,480.9l266.5,266.5,6.5-35.1c2.7-14.5,4.9-29,6.5-43.7l-279.6-279.6v91.8Z"/>
        <polygon class="cls-1" points="708.7 1416.6 739.5 1251.4 663.7 1175.7 708.7 1416.6"/>
        <path class="cls-1" d="M566.9,369.1l281.4,281.4c1.4-16.8,2.1-33.6,2.1-50.4v-39.3l-283.5-283.5v91.8Z"/>
        <polygon class="cls-1" points="796.3 .7 708.7 .7 669 .7 850.4 182.1 850.4 54.9 796.3 .7"/>
        <polygon class="cls-1" points="629.2 990.6 763.1 1124.5 777.6 1047.1 608.2 877.7 629.2 990.6"/>
        <polygon class="cls-1" points="603.6 853.1 780.7 1030.3 795.2 952.9 582.5 740.2 603.6 853.1"/>
        <polygon class="cls-1" points="850.4 .7 816.3 .7 850.4 34.8 850.4 .7"/>
      </g>
    </g>
  </g>
</svg>