<?xml version="1.0" encoding="UTF-8"?>
<svg xmlns="http://www.w3.org/2000/svg" version="1.1" viewBox="0 0 1417.3 1417.3">
  <defs>
    <style>
      .cls-1 {
        fill: #fff;
      }
    </style>
  </defs>
  <!-- Generator: Adobe Illustrator 28.7.1, SVG Export Plug-In . SVG Version: 1.2.0 Build 142)  -->
  <g>
    <g id="Ebene_1">
      <path class="cls-1" d="M826.7,199.7v-42.5h23.7V.7h-283.5v156.5h23.7v42.5h-23.7v33.5h23.7v42.5h-23.7v33.5h23.7v42.5h-23.7v33.5h23.7v42.5h-23.7v33.5h23.7v42.5h-23.7v96.4c0,37.7,3.5,75.3,10.4,112.3l131.3,704.2,131.3-704.2c6.9-37,10.4-74.7,10.4-112.3v-96.4h-23.7v-42.5h23.7v-33.5h-23.7v-42.5h23.7v-33.5h-23.7v-42.5h23.7v-33.5h-23.7v-42.5h23.7v-33.5h-23.7Z"/>
    </g>
  </g>
</svg>