<?xml version="1.0" encoding="UTF-8"?>
<svg xmlns="http://www.w3.org/2000/svg" version="1.1" viewBox="0 0 1417.3 1417.3">
  <defs>
    <style>
      .cls-1 {
        fill: #fff;
      }
    </style>
  </defs>
  <!-- Generator: Adobe Illustrator 28.7.1, SVG Export Plug-In . SVG Version: 1.2.0 Build 142)  -->
  <g>
    <g id="Ebene_1">
      <g>
        <path class="cls-1" d="M109.3,1168l20.1,25.3-16.2,17.5-9.7-.6,2.6,13-24.6-1.3,3.2,24-29.8-3.9,6.5,22-24.6-3.9,5.2,24.6-24.6-1.3,5.2,27.2-16.2-4.5s-.6,25.3,4.5,30.4c5.2,5.2,35,35,35,35,0,0,29.8,29.8,35,35,5.2,5.2,30.4,4.5,30.4,4.5l-4.5-16.2,27.2,5.2-1.3-24.6,24.6,5.2-3.9-24.6,22,6.5-3.9-29.8,24,3.2-1.3-24.6,13,2.6-.6-9.7,17.5-16.2,25.3,20.1s587.1-605.3,915.1-937.3l-117.7-117.7C719.4,576.4,109.3,1168,109.3,1168Z"/>
        <path class="cls-1" d="M1410.8,63.4l-45.2-11.8-11.8-45.2s-68.9,5.4-105.8,42.3c-7.3,10.8-82,86.1-190,193l117.6,117.6c112.2-113.5,191.8-192.6,203-200.1,36.9-36.9,32.3-95.8,32.3-95.8Z"/>
      </g>
    </g>
  </g>
</svg>