<?xml version="1.0" encoding="UTF-8"?>
<svg xmlns="http://www.w3.org/2000/svg" version="1.1" viewBox="0 0 1417.3 1417.3">
  <defs>
    <style>
      .cls-1 {
        fill: none;
      }

      .cls-2 {
        fill: #929292;
      }

      .cls-3 {
        fill: #fff;
      }

      .cls-4 {
        display: none;
      }
    </style>
  </defs>
  <!-- Generator: Adobe Illustrator 28.7.1, SVG Export Plug-In . SVG Version: 1.2.0 Build 142)  -->
  <g>
    <g id="Ebene_1">
      <g>
        <circle class="cls-1" cx="232.5" cy="1184.8" r="34" transform="translate(-951.1 946.2) rotate(-67.5)"/>
        <path class="cls-3" d="M173.6,1330.2l23.9,3.2-1.3-24.5,12.9,2.6-.6-9.7,17.4-16.1,25.2,20,230.4-285.9s455-451.2,508.6-506c53.6-54.9,150.4-131,193.6-160.1,36.8-36.8,224.6-287.9,224.6-287.9l-27.1-27.1-197.8,197.8-2.7-2.7,197.8-197.8-27.1-27.1s-251.1,187.8-287.9,224.6c-29,43.2-105.2,140.1-160.1,193.6-54.9,53.6-506,508.6-506,508.6l-285.9,230.4,20,25.2-16.1,17.4-9.7-.6,2.6,12.9-24.5-1.3,3.2,23.9-29.7-3.9,6.5,21.9-24.5-3.9,5.2,24.5-24.5-1.3,5.2,27.1-16.1-4.5s-.6,25.2,4.5,30.3c5.2,5.2,34.9,34.9,34.9,34.9,0,0,29.7,29.7,34.9,34.9s30.3,4.5,30.3,4.5l-4.5-16.1,27.1,5.2-1.3-24.5,24.5,5.2-3.9-24.5,21.9,6.5-3.9-29.7ZM208.5,1208.9c-13.3-13.3-13.3-34.8,0-48.1,13.3-13.3,34.8-13.3,48.1,0s13.3,34.8,0,48.1c-13.3,13.3-34.8,13.3-48.1,0Z"/>
      </g>
      <g class="cls-4">
        <path class="cls-2" d="M463.6,798l14.4-11-13.7-12.4,8.2-5.5-5.5-4.8.7-17.9,24-2.7-29.5-274.8s2.1-482.3,1.4-540c-.7-57.7,10.3-149.8,17.9-188.2,0-39.2-33.7-272.7-33.7-272.7h-60.5s-33.7,233.6-33.7,272.7c7.6,38.5,18.5,130.5,17.9,188.2-.7,57.7,1.4,540,1.4,540l-29.5,274.8,24,2.7.7,17.9-5.5,4.8,8.2,5.5-13.7,12.4,14.4,11-17.9,13.7,15.1,8.2-15.1,11,15.8,10.3-13.7,12.4,17.2,11.7-11,6.2s13.1,13.7,18.5,13.7h74.2c5.5,0,18.5-13.7,18.5-13.7l-11-6.2,17.2-11.7-13.7-12.4,15.8-10.3-15.1-11,15.1-8.2-17.9-13.7ZM417.5,714.9c-14.1,0-25.6-11.5-25.6-25.6s11.5-25.6,25.6-25.6,25.6,11.5,25.6,25.6-11.5,25.6-25.6,25.6Z"/>
      </g>
    </g>
  </g>
</svg>